<svg width="24" height="24" viewBox="0 0 24 24" fill="none" xmlns="http://www.w3.org/2000/svg">
<g clip-path="url(#clip0_1315_1402)">
<rect width="24" height="24" fill="white"/>
<path d="M9.5 6.44458H7V17.5557H9.5V6.44458Z" fill="#333333"/>
<path d="M4.5 2H2V22H4.5V2Z" fill="#333333"/>
<path d="M17 6.44458H14.5V17.5557H17V6.44458Z" fill="#333333"/>
<path d="M22 4.22217H19.5V17.5555H22V4.22217Z" fill="#333333"/>
<path d="M14.5 8.66681V6.44458H9.5V8.66681H14.5Z" fill="#333333"/>
<path d="M14.5 13.1111V10.8889H9.5V13.1111H14.5Z" fill="#333333"/>
<path d="M22 22.0001V19.7778H4.5V22.0001H22Z" fill="#333333"/>
<path d="M22 4.22222V2L4.5 2V4.22222L22 4.22222Z" fill="#333333"/>
<path d="M19.5 17.5555V15.3333H17V17.5555H19.5Z" fill="#333333"/>
</g>
<defs>
<clipPath id="clip0_1315_1402">
<rect width="24" height="24" fill="white"/>
</clipPath>
</defs>
</svg>
