
<svg id="visual" viewBox="0 0 1440 320" width="1440" height="320" xmlns="http://www.w3.org/2000/svg" xmlns:xlink="http://www.w3.org/1999/xlink" version="1.1"><path d="M0 213L17.2 208.8C34.3 204.7 68.7 196.3 103 209.7C137.3 223 171.7 258 206 259.2C240.3 260.3 274.7 227.7 308.8 211.5C343 195.3 377 195.7 411.2 197.5C445.3 199.3 479.7 202.7 514 220.2C548.3 237.7 582.7 269.3 617 273.3C651.3 277.3 685.7 253.7 720 233.5C754.3 213.3 788.7 196.7 823 193.2C857.3 189.7 891.7 199.3 926 216.8C960.3 234.3 994.7 259.7 1028.8 254C1063 248.3 1097 211.7 1131.2 207.2C1165.3 202.7 1199.7 230.3 1234 240.5C1268.3 250.7 1302.7 243.3 1337 241.3C1371.3 239.3 1405.7 242.7 1422.8 244.3L1440 246L1440 321L1422.8 321C1405.7 321 1371.3 321 1337 321C1302.7 321 1268.3 321 1234 321C1199.7 321 1165.3 321 1131.2 321C1097 321 1063 321 1028.8 321C994.7 321 960.3 321 926 321C891.7 321 857.3 321 823 321C788.7 321 754.3 321 720 321C685.7 321 651.3 321 617 321C582.7 321 548.3 321 514 321C479.7 321 445.3 321 411.2 321C377 321 343 321 308.8 321C274.7 321 240.3 321 206 321C171.7 321 137.3 321 103 321C68.7 321 34.3 321 17.2 321L0 321Z" fill="#000" stroke-linecap="round" stroke-linejoin="miter"></path></svg>
