<svg width="128" height="50" viewBox="0 0 128 50" fill="none" xmlns="http://www.w3.org/2000/svg">
<path d="M9.85402 12.3175H14.781V36.9526H9.85402V12.3175Z" fill="#F9F9F9"/>
<path d="M0 2.46351H4.92701V46.8066H0V2.46351Z" fill="#F9F9F9"/>
<path d="M24.6351 12.3175H29.5621V36.9526H24.6351V12.3175Z" fill="#F9F9F9"/>
<path d="M34.4891 7.39052H39.4161V36.9526H34.4891V7.39052Z" fill="#F9F9F9"/>
<path d="M24.6351 12.3175V17.2445H14.781V12.3175H24.6351Z" fill="#F9F9F9"/>
<path d="M24.6351 22.1716V27.0986L14.781 27.0986V22.1716H24.6351Z" fill="#F9F9F9"/>
<path d="M39.4161 41.8796V46.8066L4.92701 46.8066V41.8796L39.4161 41.8796Z" fill="#F9F9F9"/>
<path d="M39.4161 2.46351V7.39052H4.92701L4.92701 2.46351H39.4161Z" fill="#F9F9F9"/>
<path d="M34.4891 32.0256V36.9526H29.5621V32.0256H34.4891Z" fill="#F9F9F9"/>
<path d="M46.2154 0H48.6789V49.2701H46.2154V0Z" fill="#F9F9F9"/>
<path d="M69.0568 19.5394H62.1369L60.9285 23.4526H55.5335L63.2159 2.50585H67.9635L75.7034 23.4526H70.2797L69.0568 19.5394ZM63.3454 15.6407H67.8484L65.5897 8.37553L63.3454 15.6407Z" fill="#F9F9F9"/>
<path d="M88.6806 2.50585H93.7158V16.8779C93.7158 18.2111 93.4041 19.4004 92.7807 20.4458C92.1669 21.4912 91.3037 22.3017 90.1912 22.8771C89.0882 23.4526 87.8557 23.7403 86.4938 23.7403C84.2112 23.7403 82.4368 23.1648 81.1708 22.0139C79.9048 20.863 79.2718 19.2325 79.2718 17.1225H84.3359C84.3359 18.0816 84.4989 18.777 84.825 19.2086C85.1607 19.6402 85.717 19.856 86.4938 19.856C87.194 19.856 87.7311 19.597 88.1051 19.0791C88.4888 18.5516 88.6806 17.8179 88.6806 16.8779V2.50585Z" fill="#F9F9F9"/>
<path d="M105.384 23.4526H100.349V2.50585H105.384V23.4526Z" fill="#F9F9F9"/>
<path d="M128 6.40459H121.713V23.4526H116.663V6.40459H110.492V2.50585H128V6.40459Z" fill="#F9F9F9"/>
<path d="M65.2023 41.6774C65.2023 41.0624 64.9827 40.5831 64.5434 40.2397C64.1121 39.8962 63.3493 39.5408 62.255 39.1734C61.1608 38.806 60.2662 38.4506 59.5714 38.1071C57.311 36.9969 56.1808 35.4714 56.1808 33.5305C56.1808 32.564 56.4604 31.7134 57.0195 30.9786C57.5866 30.2358 58.3853 29.6607 59.4156 29.2534C60.446 28.838 61.6041 28.6304 62.89 28.6304C64.144 28.6304 65.2662 28.854 66.2566 29.3013C67.255 29.7486 68.0298 30.3875 68.5809 31.2182C69.132 32.0409 69.4075 32.9834 69.4075 34.0456H65.2143C65.2143 33.3348 64.9946 32.7837 64.5553 32.3923C64.124 32.0009 63.537 31.8053 62.7942 31.8053C62.0434 31.8053 61.4483 31.973 61.0091 32.3084C60.5777 32.6359 60.3621 33.0552 60.3621 33.5664C60.3621 34.0137 60.6017 34.421 61.0809 34.7885C61.5602 35.1479 62.4028 35.5233 63.6089 35.9146C64.8149 36.298 65.8053 36.7134 66.5801 37.1606C68.4651 38.2469 69.4075 39.7445 69.4075 41.6534C69.4075 43.179 68.8325 44.377 67.6823 45.2476C66.5322 46.1182 64.9547 46.5535 62.9499 46.5535C61.5362 46.5535 60.2543 46.3019 59.1041 45.7987C57.962 45.2876 57.0993 44.5927 56.5163 43.7141C55.9412 42.8275 55.6537 41.8092 55.6537 40.659H59.8709C59.8709 41.5935 60.1105 42.2844 60.5897 42.7317C61.0769 43.171 61.8637 43.3906 62.9499 43.3906C63.6448 43.3906 64.1919 43.2428 64.5913 42.9473C64.9986 42.6438 65.2023 42.2205 65.2023 41.6774Z" fill="#F9F9F9"/>
<path d="M76.0449 46.3139H71.8516V28.87H76.0449V46.3139Z" fill="#F9F9F9"/>
<path d="M93.5367 46.3139H89.3554L83.1734 35.4594V46.3139H78.9682V28.87H83.1734L89.3435 39.7245V28.87H93.5367V46.3139Z" fill="#F9F9F9"/>
<path d="M110.477 44.1574C109.83 44.8762 108.884 45.4553 107.638 45.8946C106.392 46.3339 105.026 46.5535 103.541 46.5535C101.256 46.5535 99.4312 45.8546 98.0654 44.4569C96.6996 43.0591 95.9688 41.1143 95.873 38.6223L95.861 37.1127C95.861 35.3955 96.1645 33.8979 96.7715 32.6199C97.3785 31.334 98.2451 30.3476 99.3713 29.6607C100.505 28.9658 101.815 28.6184 103.301 28.6184C105.474 28.6184 107.159 29.1176 108.357 30.116C109.563 31.1064 110.266 32.588 110.465 34.5608H106.416C106.272 33.5864 105.961 32.8915 105.481 32.4762C105.002 32.0608 104.323 31.8532 103.445 31.8532C102.39 31.8532 101.576 32.3005 101.001 33.195C100.426 34.0896 100.134 35.3675 100.126 37.0288V38.0832C100.126 39.8243 100.422 41.1342 101.013 42.0128C101.612 42.8834 102.55 43.3187 103.828 43.3187C104.922 43.3187 105.737 43.0751 106.272 42.5879V39.8803H103.349V36.9929H110.477V44.1574Z" fill="#F9F9F9"/>
<path d="M127.502 46.3139H123.321V39.0296H117.127V46.3139H112.922V28.87H117.127V35.7948H123.321V28.87H127.502V46.3139Z" fill="#F9F9F9"/>
</svg>
