<svg height="24" viewBox="0 0 245 170" fill="none" xmlns="http://www.w3.org/2000/svg">
	<path d="M122.5 103.329L244.105 26.5591V8.85338C244.105 4.45591 240.611 0.893814 236.303 0.893814H8.69658C4.38906 0.893814 0.894943 4.45591 0.894943 8.85338V26.5591L122.5 103.329Z" fill="#1DA1F2" />
	<path d="M124.632 111.71C124.602 111.729 124.57 111.732 124.543 111.752C124.327 111.881 124.094 111.972 123.859 112.058C123.751 112.096 123.651 112.154 123.54 112.184C123.23 112.27 122.911 112.308 122.586 112.317C122.557 112.317 122.53 112.328 122.503 112.328H122.5H122.497C122.468 112.328 122.441 112.317 122.414 112.317C122.092 112.308 121.77 112.267 121.46 112.184C121.352 112.154 121.249 112.096 121.141 112.058C120.906 111.972 120.676 111.881 120.457 111.752C120.427 111.735 120.395 111.729 120.368 111.71L0.894943 36.2859V161.149C0.894943 165.544 4.38906 169.109 8.69658 169.109H236.303C240.611 169.109 244.105 165.544 244.105 161.149V36.2859L124.632 111.71Z" fill="#1DA1F2" />
</svg>
	