<svg xmlns="http://www.w3.org/2000/svg" viewBox="0 0 1440 320">
    <path fill="#000" fill-opacity="1"
          d="M0,128L16,149.3C32,171,64,213,96,213.3C128,213,160,171,192,154.7C224,139,256,149,288,149.3C320,149,352,139,384,160C416,181,448,235,480,213.3C512,192,544,96,576,80C608,64,640,128,672,160C704,192,736,192,768,192C800,192,832,192,864,213.3C896,235,928,277,960,256C992,235,1024,149,1056,112C1088,75,1120,85,1152,122.7C1184,160,1216,224,1248,218.7C1280,213,1312,139,1344,133.3C1376,128,1408,192,1424,224L1440,256L1440,320L1424,320C1408,320,1376,320,1344,320C1312,320,1280,320,1248,320C1216,320,1184,320,1152,320C1120,320,1088,320,1056,320C1024,320,992,320,960,320C928,320,896,320,864,320C832,320,800,320,768,320C736,320,704,320,672,320C640,320,608,320,576,320C544,320,512,320,480,320C448,320,416,320,384,320C352,320,320,320,288,320C256,320,224,320,192,320C160,320,128,320,96,320C64,320,32,320,16,320L0,320Z"></path>
</svg>
